<svg xmlns="http://www.w3.org/2000/svg" width="160" height="26" viewBox="0 0 160 26">
    <g fill="none" fill-rule="evenodd">
        <path fill="#D71414" d="M25 0c.552 0 1 .448 1 1v23.188c0 .552-.448 1-1 1H1c-.552 0-1-.448-1-1V1c0-.552.448-1 1-1h24zm-7.937 13.863c-1.151 0-2.088.937-2.088 2.088 0 1.077.815 1.97 1.875 2.077v2.556l.326-.204c1.701-1.067 2.539-3.57 2.124-5.011-.197-.687-.746-1.506-2.237-1.506zm-4.886-8.98V4.88l-.032.006-.043.004c-.13.02-.26.043-.388.07-1.448.279-2.78.975-3.844 2.04-2.84 2.84-2.908 7.421-.203 10.346l.19.197.02.02c1.175 1.173 2.676 1.903 4.3 2.113v-.01c.364.037.724-.06 1.02-.279.318-.234.524-.577.583-.967.058-.39-.038-.778-.272-1.095-.235-.317-.578-.524-.967-.582-.88-.132-1.704-.495-2.365-1.067l-.09-.084c-.062-.056-.12-.114-.179-.174-.058-.06-.112-.121-.166-.184-.053-.062-.106-.123-.156-.189-.614-.788-.95-1.75-.95-2.767 0-1.047.354-2.038 1.003-2.838l.038-.047c.088-.106.18-.21.28-.308.202-.203.422-.38.653-.538.067-.045.135-.09.204-.13l.083-.05c.503-.283 1.062-.473 1.645-.56.39-.06.732-.266.967-.583.234-.317.33-.706.272-1.095-.059-.39-.265-.733-.582-.967-.297-.22-.657-.316-1.02-.28zm5.067.317c-1.151 0-2.087.964-2.087 2.149 0 1.15.936 2.087 2.087 2.087 1.185 0 2.148-.936 2.148-2.087 0-1.185-.963-2.149-2.148-2.149z"/>
        <g transform="translate(34.601 7.186)">
            <text font-family="Arial, sans-serif" font-size="14" font-weight="700" y="12">
                <tspan fill="#D71414">Co</tspan><tspan fill="#333236">staurant</tspan>
            </text>
        </g>
    </g>
</svg>
